# xmcd
#
# Track frame offsets:
# 150
# 2527
# 18912
# 37744
# 57027
# 77654
# 97952
# 112153
# 115088
# 135276
# 150609
# 169620
# 188276
# 194977
# 215153
# 228392
# 247363
# 251733
# 268536
# 287072
# 287694
# 305390
#
# Disc length: 4086 seconds
#
#
# Revision: 0
# Processed by: cddbd v1.5.1PL0 Copyright (c) Steve Scherf et al.
# Submitted via: FreeRIP 2.941 
#
DISCID=2a0ff416
DTITLE=ras kass - van gogh (rare)
DYEAR=1492
DGENRE=hip hop
TTITLE0=Van Gogh Intro
TTITLE1=Hot Game
TTITLE2=Goldyn Chyld
TTITLE3=Back It Up feat. Kokane
TTITLE4=Kiss Of Death feat. Sideline
TTITLE5=S*X feat. Xzibit and Jellyroll
TTITLE6=Is This Love
TTITLE7=Twins (Skit)
TTITLE8=Kick Rocks feat. Tray Dee
TTITLE9=4 Much feat. Bad Azz, Tash and Nate
TTITLE10=What U Want feat. Mike City
TTITLE11=N.B.A. feat. Golden State
TTITLE12=TV Commercials (Skit)
TTITLE13=TV Guide
TTITLE14=Ah-Ha!
TTITLE15=One Night
TTITLE16=Are U Mad (Skit)
TTITLE17=Root$ Of Evil feat. Kokane
TTITLE18=Van Gogh
TTITLE19=Ignant (Skit)
TTITLE20=God Bless
TTITLE21=Eulogy
EXTD=
EXTT0=
EXTT1=
EXTT2=
EXTT3=
EXTT4=
EXTT5=
EXTT6=
EXTT7=
EXTT8=
EXTT9=
EXTT10=
EXTT11=
EXTT12=
EXTT13=
EXTT14=
EXTT15=
EXTT16=
EXTT17=
EXTT18=
EXTT19=
EXTT20=
EXTT21=
PLAYORDER=
